<?xml version="1.0" encoding="utf-8"?>
<!-- Generated by IcoMoon.io -->
<!DOCTYPE svg PUBLIC "-//W3C//DTD SVG 1.1//EN" "http://www.w3.org/Graphics/SVG/1.1/DTD/svg11.dtd">
<svg version="1.1" xmlns="http://www.w3.org/2000/svg" xmlns:xlink="http://www.w3.org/1999/xlink" width="32" height="32" viewBox="0 0 32 32">
<path d="M24.536 11.732q-0.107-0.464-0.509-0.705t-0.866-0.134q-4.661 1.107-7.161 1.107t-7.161-1.107q-0.464-0.107-0.866 0.134t-0.509 0.705 0.134 0.866 0.705 0.509q3.464 0.821 5.411 1.036-0.036 2.821-0.277 4.804t-0.473 2.777-0.732 2.063l-0.161 0.375q-0.179 0.446 0.018 0.875t0.643 0.607q0.161 0.071 0.411 0.071 0.786 0 1.071-0.732l0.143-0.357q0.964-2.482 1.268-4.625h0.75q0.304 2.143 1.268 4.625l0.143 0.357q0.286 0.732 1.071 0.732 0.25 0 0.411-0.071 0.446-0.179 0.643-0.607t0.018-0.875l-0.161-0.375q-0.5-1.268-0.732-2.063t-0.473-2.777-0.277-4.804q1.946-0.214 5.411-1.036 0.464-0.107 0.705-0.509t0.134-0.866zM18.286 9.143q0-0.946-0.67-1.616t-1.616-0.67-1.616 0.67-0.67 1.616 0.67 1.616 1.616 0.67 1.616-0.67 0.67-1.616zM28.571 16q0 2.554-0.991 4.884t-2.679 4.018-4.018 2.679-4.884 0.991-4.884-0.991-4.018-2.679-2.679-4.018-0.991-4.884 0.991-4.884 2.679-4.018 4.018-2.679 4.884-0.991 4.884 0.991 4.018 2.679 2.679 4.018 0.991 4.884zM16 2.286q-2.786 0-5.321 1.089t-4.375 2.929-2.929 4.375-1.089 5.321 1.089 5.321 2.929 4.375 4.375 2.929 5.321 1.089 5.321-1.089 4.375-2.929 2.929-4.375 1.089-5.321-1.089-5.321-2.929-4.375-4.375-2.929-5.321-1.089zM32 16q0 3.25-1.268 6.214t-3.411 5.107-5.107 3.411-6.214 1.268-6.214-1.268-5.107-3.411-3.411-5.107-1.268-6.214 1.268-6.214 3.411-5.107 5.107-3.411 6.214-1.268 6.214 1.268 5.107 3.411 3.411 5.107 1.268 6.214z"></path>
</svg>
