<?xml version="1.0" encoding="utf-8"?>
<!-- Generated by IcoMoon.io -->
<!DOCTYPE svg PUBLIC "-//W3C//DTD SVG 1.1//EN" "http://www.w3.org/Graphics/SVG/1.1/DTD/svg11.dtd">
<svg version="1.1" xmlns="http://www.w3.org/2000/svg" xmlns:xlink="http://www.w3.org/1999/xlink" width="28" height="32" viewBox="0 0 28 32">
<path d="M25.679 14.518q0.607 0.625 0.518 1.464l-0.786 9.839q-0.071 0.75-0.616 1.25t-1.277 0.5q-0.107 0-0.161-0.018-0.786-0.054-1.295-0.652t-0.455-1.384l0.625-7.661-2.554 0.143q0.982 2.018 0.982 4.286 0 3.857-2.643 6.643l-2.446-2.446q1.625-1.804 1.625-4.196 0-2.589-1.83-4.429t-4.42-1.839q-2.393 0-4.214 1.643l-2.446-2.464q2.143-2.036 5.071-2.518l4.714-5.357-2.661-1.554-3.232 2.875q-0.589 0.536-1.375 0.491t-1.304-0.634-0.473-1.375 0.616-1.304l4.268-3.804q0.464-0.411 1.071-0.473t1.143 0.259l8.714 5.054q0.643 0.375 0.857 1.214 0.304 1.196-0.464 2.089l-3.661 4.143 6.625-0.357q0.875-0.054 1.482 0.571zM22.143 6.357q-1.321 0-2.25-0.929t-0.929-2.25 0.929-2.25 2.25-0.929 2.259 0.929 0.938 2.25-0.938 2.25-2.259 0.929zM10.946 28.536q1.893 0 3.5-1.089l2.482 2.482q-2.607 2.071-5.982 2.071-2.643 0-4.884-1.304t-3.545-3.536-1.304-4.875q0-3.357 2.071-6l2.482 2.482q-1.071 1.571-1.071 3.518 0 2.589 1.83 4.42t4.42 1.83z"></path>
</svg>
